<svg xmlns="http://www.w3.org/2000/svg" viewBox="0 0 623.62 623.62"><defs><style>.cls-1{fill:#fff;}.cls-2{fill:#070808;}.cls-3{fill:#00acdc;}</style></defs><g id="BG"><rect class="cls-1" y="184.25" width="623.62" height="255.12"/></g><g id="Logo"><path class="cls-2" d="M202.83,325H191.41v-6.62h18v22.76l-8.61,9.11H179.16l-8.61-9.11V297.26l8.61-9.11h21.68l8.61,9.11v10.43h-6.62v-7l-5.21-5.38H182.47l-4.31,4.39v39.07l4.22,4.39h15.15l5.3-5.38Z"/><path class="cls-2" d="M245.88,350.24v-6.63h5.46l-3.56-10.26H227.09l-3.56,10.26h5.54v6.63H211.52v-6.63h4.39l14-40.56h-3.48v-6.62h22.11v6.62H245l14,40.56h4.47v6.63Zm-8.45-46.94-8.11,23.43h16.23Z"/><path class="cls-2" d="M279.73,343.61h5.8v6.63H266.32v-6.63h5.8V303.05h-5.8v-6.62h16.89l15.65,39.15,15.64-39.15h16.89v6.62H325.6v40.56h5.79v6.63H312.18v-6.63H318V305.78L302.5,343.61h-7.29l-15.48-37.83Z"/><path class="cls-2" d="M338,296.43h39.41v16.22h-6.63v-9.6H351.42v17h19.37v6.62H351.42v17h19.37V334h6.63v16.23H338v-6.63h5.8V303.05H338Z"/><path class="cls-2" d="M382.38,296.43h35.27l8.61,9.1v35.6l-8.61,9.11H382.38v-6.63h5.8V303.05h-5.8Zm13.41,46.69h18.55l4.3-4.39V307.94l-4.22-4.39H395.79Z"/><path class="cls-2" d="M429.57,296.43H469v16.22h-6.62v-9.6H443v17h19.37v6.62H443v17h19.37V334H469v16.23h-39.4v-6.63h5.79V303.05h-5.79Z"/><path class="cls-2" d="M472.28,303.05v-6.62h17.55v6.62h-5.38L499,343.7l14.65-40.65h-5.38v-6.62h17.55v6.62h-4.55l-17,47.19H493.81l-17-47.19Z"/><path class="cls-2" d="M516.73,340.3H525v9.94h-8.28Z"/><path class="cls-2" d="M556.3,303.05h-5.79v-6.62h18.38v6.62h-5v38.08l-8.61,9.11H539.42l-8.61-9.11V326.56h6.62v11.18l5.22,5.38H552l4.3-4.39Z"/><path class="cls-2" d="M608.62,316h-6.87v-7.29l-5-5.13H584.12l-4.31,4.39v8.11l4.06,4.14h17.22l8.36,8.77v12.17l-8.61,9.11H580l-8.61-9.11V330.7h6.87V338l5,5.13h14.32l4.22-4.39v-7.37l-4-4.05H580.64l-8.44-8.86V305.53l8.61-9.1H600l8.61,9.1Z"/><path class="cls-3" d="M131.72,302.63a29.18,29.18,0,0,0-34.82-28.7L36.44,289.72a29.2,29.2,0,0,0-15.25,47.36l-4.63,13.16,15.16-5.35a29.22,29.22,0,0,0,40.77-23.66l6.26-1.55a29.16,29.16,0,0,0,35.42,9.75l15.17,5.34-4.64-13.16A29.1,29.1,0,0,0,131.72,302.63ZM57.31,320.76a2.44,2.44,0,0,1-2.44,2.43H50.42A2.44,2.44,0,0,0,48,325.63v4.46a2.45,2.45,0,0,1-2.43,2.44h-4a2.45,2.45,0,0,1-2.43-2.44v-4.46a2.44,2.44,0,0,0-2.44-2.44H32.22a2.44,2.44,0,0,1-2.44-2.43v-4a2.45,2.45,0,0,1,2.44-2.44h4.45a2.44,2.44,0,0,0,2.44-2.44v-4.45A2.43,2.43,0,0,1,41.54,305h4A2.43,2.43,0,0,1,48,307.42v4.45a2.44,2.44,0,0,0,2.44,2.44h4.45a2.45,2.45,0,0,1,2.44,2.44Zm34.61-13a4.81,4.81,0,1,1,4.63-5A4.82,4.82,0,0,1,91.92,307.79Zm10-20.74a4.81,4.81,0,1,1-4.63,5A4.81,4.81,0,0,1,101.9,287.05Zm1.15,31.07a4.81,4.81,0,1,1,4.63-5A4.81,4.81,0,0,1,103.05,318.12ZM113.38,307a4.81,4.81,0,1,1,4.63-5A4.82,4.82,0,0,1,113.38,307Z"/></g></svg>