<svg xmlns="http://www.w3.org/2000/svg" viewBox="0 0 623.62 623.62"><defs><style>.cls-1{fill:#fff;}.cls-2{fill:#ae313c;}</style></defs><g id="BG"><rect class="cls-1" y="184.25" width="623.62" height="255.12"/></g><g id="Logo"><path class="cls-2" d="M104.87,298.62l1,5.68.22-5.62-.32,0A3.94,3.94,0,0,1,104.87,298.62Z"/><path class="cls-2" d="M129.66,336.74c-2.1-9-2.1-8.17-4.25-17.09-.17-.71-8-6-8.19-6.75-.12-.48,4.37-7.1,4.26-7.58-2-8.21-3.06-15.37-5.34-23.53a4.33,4.33,0,0,0-4.23-3.2h-5l-.52,13.13a3.53,3.53,0,0,1-.28,7l-.22,5.62-1-5.68a3.54,3.54,0,0,1-1.15-6.4l-2.44-13.63H96.21a4.32,4.32,0,0,0-4.14,2.92l-1,2.9,3.21,36.28,7.54,23.73a14.92,14.92,0,0,0,14,10.61c.62,0-7-28.62-6.32-28.7s9.46,27.85,10.09,27.68A14.16,14.16,0,0,0,129.66,336.74ZM98.2,306.89a3.54,3.54,0,1,1,3.4-3.67A3.56,3.56,0,0,1,98.2,306.89Zm8.17,7.59a3.54,3.54,0,1,1,3.41-3.67A3.54,3.54,0,0,1,106.37,314.48Zm7.6-8.18a3.53,3.53,0,1,1,3.4-3.66A3.55,3.55,0,0,1,114,306.3Z"/><path class="cls-2" d="M51.23,281.51a4.31,4.31,0,0,0-4.14-2.92H31.39a4.33,4.33,0,0,0-4.23,3.2q-1.57,5.64-3,11.31c-.12.45,3.45-.11,3.34.34-3.61,14-9.48,29.15-12.79,43.3-1.82,7.75,1.41,15.67,9.07,17.78a14.71,14.71,0,0,0,17.78-10.1l7.54-23.73,3.21-36.28Zm-2.68,22.74A1.79,1.79,0,0,1,46.76,306H43.49a1.79,1.79,0,0,0-1.79,1.79v3.27a1.8,1.8,0,0,1-1.79,1.8H37a1.8,1.8,0,0,1-1.79-1.8v-3.27A1.79,1.79,0,0,0,33.39,306H30.12a1.8,1.8,0,0,1-1.8-1.79V301.3a1.8,1.8,0,0,1,1.8-1.79h3.27a1.79,1.79,0,0,0,1.79-1.79v-3.27A1.79,1.79,0,0,1,37,292.66h2.94a1.79,1.79,0,0,1,1.79,1.79v3.27a1.79,1.79,0,0,0,1.79,1.79h3.27a1.79,1.79,0,0,1,1.79,1.79Z"/><path class="cls-2" d="M89.33,284.41H53.73l-.8,9.22,27.73.17,0,1.28H52.8l-1.2,13.74,29.19.17,0,1.32-29.3.13-.89,10.24h42Zm-19.9,16.7-4.37,4.37A1.74,1.74,0,0,1,62.6,303L67,298.65a1.74,1.74,0,0,1,2.46,2.46Zm9.91,0L75,305.48a1.75,1.75,0,0,1-2.46,0,1.73,1.73,0,0,1,0-2.45l4.36-4.37a1.74,1.74,0,0,1,2.47,2.46Z"/><path d="M175.91,297.77H172v-4.45h12.35v4.45H181v25.58l-5.78,6.11H164.56l-5.78-6.11v-9.79h4.45v7.51l3.5,3.61H173l2.89-2.95v-24Z"/><path d="M214.39,306.44h-4.62v-4.89l-3.33-3.45h-8.51L195,301.05v5.45l2.72,2.78h11.57l5.62,5.89v8.18l-5.79,6.11h-14l-5.78-6.11v-7H194v4.89l3.39,3.45H207l2.84-2.95v-5l-2.67-2.72H195.59l-5.67-5.95v-8.68l5.78-6.11h12.91l5.78,6.11v7Z"/><path class="cls-2" d="M235.58,287.75V325h8.34v4.45h-21.8V325h8.34V293.15l-9.06,4.5-2.17-4.33,11.23-5.57Z"/><path class="cls-2" d="M256.76,310.94V306.5h8.79l2.67-2.73v-8.29l-2.89-2.94h-8.51L253.48,296v4.89h-4.61v-7l5.78-6.12h12.9l5.79,6.12v11.51l-2.84,2.95,3.89,4.06v11l-5.78,6.11h-14l-5.79-6.11v-7h4.62v4.89l3.39,3.45h9.62l2.84-2.95V314l-3-3.06Z"/><path class="cls-2" d="M310.54,329.46H298.75V325h2.84l-8.18-11.4h-5.5V325h3.89v4.45H278.9V325h3.89V297.77H278.9v-4.45h12.9v4.45h-3.89v11.4h4.89l8.23-11.4h-2.84v-4.45H310v4.45h-3.22L297.25,311l10.06,14h3.23Z"/><path d="M337.79,312.5h-7.68v-4.45h12.13v15.3l-5.79,6.11H321.88l-5.78-6.11V293.87l5.78-6.12h14.57l5.79,6.12v7h-4.45v-4.73l-3.5-3.61H324.11l-2.89,2.94v26.25l2.83,2.95h10.18l3.56-3.61Z"/><path d="M367.82,329.46V325h3.67l-2.39-6.89H355.2L352.8,325h3.73v4.45H344.74V325h2.95l9.4-27.24h-2.34v-4.45H369.6v4.45h-2.39l9.4,27.24h3v4.45Zm-5.67-31.53-5.45,15.74h10.9Z"/><path d="M391.68,325h3.89v4.45h-12.9V325h3.89V297.77h-3.89v-4.45H394l10.51,26.3L415,293.32h11.35v4.45h-3.9V325h3.9v4.45H413.47V325h3.9V299.6L407,325h-4.89l-10.4-25.41V325Z"/><path d="M433.05,293.32h26.47v10.9h-4.45v-6.45h-13v11.4h13v4.44h-13V325h13v-6.45h4.45v10.9H433.05V325h3.89V297.77h-3.89Z"/><path d="M489.55,306.44h-4.62v-4.89l-3.33-3.45h-8.51l-2.89,2.95v5.45l2.72,2.78h11.57l5.61,5.89v8.18l-5.78,6.11h-14l-5.79-6.11v-7h4.62v4.89l3.39,3.45h9.62l2.84-2.95v-5l-2.67-2.72H470.75l-5.67-5.95v-8.68l5.78-6.11h12.91l5.78,6.11v7Z"/><path d="M493.44,322.79H499v6.67h-5.56Z"/><path d="M525.14,316.34h4.45v7l-5.78,6.11h-14L504,323.35V299.43l5.78-6.11h14l5.78,6.11v7h-4.45v-4.73l-3.5-3.61H512l-2.9,2.95v20.68l2.84,2.95h9.62l3.56-3.61Z"/><path d="M539.82,329.46,534,323.35V299.43l5.78-6.11H555.5l5.79,6.11v23.92l-5.79,6.11Zm2.17-4.78h11.29l2.89-2.95V301.05l-2.84-2.95H542l-2.89,2.95v20.68Z"/><path d="M574.75,325h3.89v4.45h-12.9V325h3.89V297.77h-3.89v-4.45h11.34l10.51,26.3,10.51-26.3h11.35v4.45h-3.9V325h3.9v4.45H596.54V325h3.9V299.6L590,325h-4.9L574.75,299.6V325Z"/></g></svg>