<svg id="Layer_1" data-name="Layer 1" xmlns="http://www.w3.org/2000/svg" viewBox="0 0 125.1 144"><defs><style>.cls-1{fill:#fff;}.cls-2{fill:#dfdfdf;}.cls-3{fill:#262e60;}.cls-4{fill:#777bb4;}</style></defs><rect class="cls-1" width="125.1" height="144"/><polygon class="cls-2" points="56.2 44.7 106.8 59.9 97.7 106.4 62.1 120.6 24.7 106.4 18.3 59.9 56.2 44.7"/><path class="cls-3" d="M105,67.6a3.71,3.71,0,0,0-2.7-4.9L80,58.2a3.65,3.65,0,0,0-4.4,3.6V97a3.69,3.69,0,0,0,3.7,3.7H89.9a3.54,3.54,0,0,0,3.4-2.4Z"/><path class="cls-3" d="M60.5,103h3.1a2.79,2.79,0,0,0,2-.8,3.61,3.61,0,0,0,.7-2.4,4,4,0,0,0-.7-2.6,2.17,2.17,0,0,0-1.9-1H60.6V103Zm0,3.7v7.7H56v-22h7.5a7,7,0,0,1,5.2,2,7.19,7.19,0,0,1,1.9,5.3,6.57,6.57,0,0,1-1.9,5.1,7.62,7.62,0,0,1-5.3,1.9Z"/><path class="cls-3" d="M77.6,113.6a3.59,3.59,0,0,1-1,.7,2.74,2.74,0,0,1-1.3.2,2.41,2.41,0,0,1-1.9-.8,3.07,3.07,0,0,1-.7-2.2v-1.3a3.71,3.71,0,0,1,.6-2.3,2.41,2.41,0,0,1,1.9-.8,2.44,2.44,0,0,1,1.8.6,3,3,0,0,1,.7,1.8H76.3q0-.75-.3-.9a.91.91,0,0,0-.7-.3,1,1,0,0,0-.9.4,2.42,2.42,0,0,0-.3,1.4v1.3a2.42,2.42,0,0,0,.3,1.4,1.05,1.05,0,0,0,1,.4,1.45,1.45,0,0,0,.7-.2l.1-.1v-1.3h-1v-1.1h2.5v3.1Zm-6-6.4v5a2.09,2.09,0,0,1-2.3,2.3,2.44,2.44,0,0,1-1.8-.6,2.35,2.35,0,0,1-.6-1.7v-4.9h1.5v5a2,2,0,0,0,.2.9,1,1,0,0,0,1.4,0,2,2,0,0,0,.2-.9v-5h1.4Z"/><path class="cls-4" d="M88.4,54.9A1.69,1.69,0,0,1,90,53.1a1.84,1.84,0,0,1,1.7,1.8A1.63,1.63,0,0,1,90,56.6a1.5,1.5,0,0,1-1.6-1.7Zm.1,13.6a3.15,3.15,0,0,1-.8-1.5,3.72,3.72,0,0,1,1.8-3.7,1.1,1.1,0,0,1,1.5.3c1,1.2,2,2.5,2.9,3.7a2.51,2.51,0,0,1,.4.7c.4.8.2,1.4-.7,1.6a7.72,7.72,0,0,1-1.5.2,5.33,5.33,0,0,1-3.6-1.3Zm-15,8.9c.3-2.5,1.3-4.5,3.6-5.4.9-.4,1.7-1.1,2.6-1.5a16.92,16.92,0,0,1,3.1-1.3,1.81,1.81,0,0,1,2,.9c.5.7.1,1.4-.3,2a24.26,24.26,0,0,1-1.4,2c-.8,1.1-1.6,2.1-2.4,3.2a5.6,5.6,0,0,0-1.3,3.5,11.5,11.5,0,0,0,3.5,7.5,1,1,0,0,0,.9.3,5.83,5.83,0,0,0,3.4-1.7,1.89,1.89,0,0,0-.4-3.2l-.9-.6a2.13,2.13,0,0,1-.6-2.7,2.87,2.87,0,0,1,.8-1.3c1.7-1.6,3.3-3.3,5-4.8a19,19,0,0,0,6.8-14.2,31.79,31.79,0,0,0-4.1-17.9c-1.2-2.1-2.6-4.1-4.7-5.1a22.53,22.53,0,0,0-4.6-1.5c-4.2-1.2-8.5-2.1-12.9-1.3A9.41,9.41,0,0,0,64,41.2a22.49,22.49,0,0,0-.8,8.2c.5,5.5,4.3,10.4,9.1,11.9,2.1.6,3.3.3,4.5-1.6.9-1.4,1.7-2.9,2.5-4.3.1-.2.2-.5.3-.7s.2-.5.3-.7a16.86,16.86,0,0,1-2,6.7,3.8,3.8,0,0,1-2.8,2.1,11.53,11.53,0,0,1-11.4-5.3c-3.1-4.6-3.8-9.8-2.9-15.3.2-1.1.5-2.2.7-3.2a1.29,1.29,0,0,0-.7-1.5l-.9-.3a34.81,34.81,0,0,0-11.6-.8A25.22,25.22,0,0,0,36,40.9C30.1,45,26.5,51,24.5,58.2a17.53,17.53,0,0,0-.4,3.3c0,.7.4.9.9.5a12.88,12.88,0,0,0,1.6-1.7c.5-.6.8-1.2,1.3-1.8.3-.5.6-.4.8.2.1.3.2.7.3,1a25.11,25.11,0,0,0,5.2,10.6,2.57,2.57,0,0,1,.7,1.6,37.26,37.26,0,0,1,.1,4.7c-.3,3.3-.7,6.7-1.1,10-.2,1.9.4,3,2,3.7a11.21,11.21,0,0,0,3.6.9c1.9.1,3.9,0,5.8,0,.1-2.4-.1-4.7,1.9-5.9-.4-1.7-.8-3.4-1.1-5.1a4.9,4.9,0,0,1,.9-3.9c.9-1.1,1.9-1.4,2.9-.8a9.54,9.54,0,0,0,9.1.7c1.4-.6,2.4-.2,3.2,1.2a8.59,8.59,0,0,1,1.1,5c-.1,2.2-.5,4.4-.7,6.5-.1,1.2,0,1.5,1.1,1.8a19.06,19.06,0,0,0,7.5.5c.1,0,.3-.1.4-.1.1-2.3-.1-4.7,2.4-5.9a14.71,14.71,0,0,1-.5-7.8Z"/><path class="cls-3" d="M80.7,98c-6.2,8.9-8.9-14-18.8-14s-12.3,24.7-18,14c0-12.3,8.1-22.4,18-22.4S80.7,85.6,80.7,98Z"/><path class="cls-3" d="M18.9,40.5a3.69,3.69,0,0,1,2.8-4.2l20.6-4.5a3.6,3.6,0,0,1,4.4,3.4L49,72.7l2.2,37.9a3.66,3.66,0,0,1-3.6,3.9H35a3.65,3.65,0,0,1-3.6-3Z"/><path class="cls-1" d="M34.7,57.1a2.62,2.62,0,0,0,1.5-.6,1.29,1.29,0,0,0,.4-1.2,1.26,1.26,0,0,0-.7-1,3,3,0,0,0-1.7-.2,2.62,2.62,0,0,0-1.5.6,1.29,1.29,0,0,0-.4,1.2,1.26,1.26,0,0,0,.7,1A2.7,2.7,0,0,0,34.7,57.1Zm.1,1.9a4,4,0,0,1-1.9-.2,2.43,2.43,0,0,1-1.4-1,3.25,3.25,0,0,1-.7-1.7,3.12,3.12,0,0,1,.6-2.4,3.53,3.53,0,0,1,2.3-1.3l.5-.1a3.9,3.9,0,0,1,2.7.6,3.17,3.17,0,0,1,1.3,2.3,3.34,3.34,0,0,1-.7,2.6A4.52,4.52,0,0,1,34.8,59Zm.8,5.7a3.39,3.39,0,0,0,1.5-.6,1.19,1.19,0,0,0,.4-1.1,1.35,1.35,0,0,0-.8-1.2l-3,.4a1.23,1.23,0,0,0-.5,1.3,1.26,1.26,0,0,0,.7,1A2.31,2.31,0,0,0,35.6,64.7Zm.1,1.9a4.56,4.56,0,0,1-2.7-.4,2.87,2.87,0,0,1-1.3-2,2.12,2.12,0,0,1,.6-1.9h-.7l-.2-1.7,6.8-.8a3.21,3.21,0,0,1,1.7.2,2.54,2.54,0,0,1,1.2,1.1,4.92,4.92,0,0,1,.6,1.7,4.45,4.45,0,0,1-.1,1.6,2.4,2.4,0,0,1-.7,1.2l-1.3-.7a2,2,0,0,0,.6-1.8,1.63,1.63,0,0,0-.5-1.1,2.13,2.13,0,0,0-1.2-.3h-.4a2.5,2.5,0,0,1,.3,3.8,4.45,4.45,0,0,1-2.7,1.1Zm-4.9,4a.84.84,0,0,1-.7-.2,1.61,1.61,0,0,1-.4-.7,1.08,1.08,0,0,1,.2-.8,1.61,1.61,0,0,1,.7-.4.84.84,0,0,1,.7.2,1.61,1.61,0,0,1,.4.7,1.08,1.08,0,0,1-.2.8A1.61,1.61,0,0,1,30.8,70.6Zm8.7-3.1.2,1.9-7.1.9-.2-1.9Zm-1.6,6.4L33,73.2l-.2-2,7.4,1.5.2,1.8-6.8,3.3-.2-2Zm-.1,8.6a2.62,2.62,0,0,0,1.5-.6,1.29,1.29,0,0,0,.4-1.2,1.26,1.26,0,0,0-.7-1,3,3,0,0,0-1.7-.2,2.62,2.62,0,0,0-1.5.6,1.29,1.29,0,0,0-.4,1.2,1.26,1.26,0,0,0,.7,1A2.23,2.23,0,0,0,37.8,82.5Zm.1,2a4,4,0,0,1-1.9-.2,2.43,2.43,0,0,1-1.4-1,3.25,3.25,0,0,1-.7-1.7,3.12,3.12,0,0,1,.6-2.4,3.53,3.53,0,0,1,2.3-1.3l.5-.1a3.9,3.9,0,0,1,2.7.6,3.17,3.17,0,0,1,1.3,2.3,3.34,3.34,0,0,1-.7,2.6,4.85,4.85,0,0,1-2.7,1.2Zm-.7,6.3L37,89.2a1.63,1.63,0,0,0-.5-1.1,1.8,1.8,0,0,0-1.1-.3,1.6,1.6,0,0,0-1,.5,1.55,1.55,0,0,0-.2,1.2l.2,1.6Zm1.4-1.7.2,1.6,3.5-.4.2,2-9.5,1-.4-3.5a4.56,4.56,0,0,1,.4-2.7,2.49,2.49,0,0,1,2-1.2,3.21,3.21,0,0,1,1.7.2,2.54,2.54,0,0,1,1.2,1.1l3.6-2.5h.1l.3,2.1Z"/></svg>